<svg width="29" height="28" viewBox="0 0 29 28" fill="none" xmlns="http://www.w3.org/2000/svg">
<path d="M27.5195 14C27.5195 15.7072 27.1832 17.3976 26.5299 18.9749C25.8766 20.5521 24.919 21.9852 23.7119 23.1924C22.5047 24.3995 21.0716 25.3571 19.4944 26.0104C17.9172 26.6637 16.2267 27 14.5195 27C12.8123 27 11.1219 26.6637 9.54463 26.0104C7.9674 25.3571 6.5343 24.3995 5.32714 23.1924C4.11998 21.9852 3.16241 20.5521 2.5091 18.9749C1.85579 17.3976 1.51953 15.7072 1.51953 14C1.51953 10.5522 2.88917 7.24558 5.32714 4.80761C7.76511 2.36964 11.0717 1 14.5195 1C17.9673 1 21.2739 2.36964 23.7119 4.80761C26.1499 7.24558 27.5195 10.5522 27.5195 14Z" stroke="white" stroke-width="1.86"/>
<path d="M19.7238 13.9999C19.7238 15.7068 19.5886 17.398 19.3273 18.9748C19.0673 20.5516 18.6838 21.9841 18.2002 23.1918C17.718 24.3994 17.1447 25.3562 16.5142 26.01C15.8825 26.6626 15.2065 26.9993 14.524 26.9993C13.8416 26.9993 13.1656 26.6626 12.5351 26.01C11.9034 25.3562 11.3301 24.3981 10.8478 23.1918C10.3642 21.9841 9.98076 20.5529 9.71947 18.9748C9.45286 17.33 9.3207 15.6662 9.32429 13.9999C9.32429 12.2931 9.45818 10.6019 9.71947 9.0251C9.98076 7.44828 10.3642 6.01575 10.8478 4.80811C11.3301 3.60048 11.9034 2.64373 12.5338 1.98986C13.1656 1.33859 13.8416 1.00061 14.524 1.00061C15.2065 1.00061 15.8825 1.33729 16.5129 1.98986C17.1447 2.64373 17.718 3.60178 18.2002 4.80811C18.6838 6.01575 19.0673 7.44698 19.3273 9.0251C19.5899 10.6019 19.7238 12.2931 19.7238 13.9999Z" stroke="white" stroke-width="1.86"/>
<path d="M1.51953 14H27.5182" stroke="white" stroke-width="1.86" stroke-linecap="round"/>
</svg>
