<svg width="248" height="40" viewBox="0 0 248 40" fill="none" xmlns="http://www.w3.org/2000/svg">
<g clip-path="url(#clip0_371_2993)">
<path d="M207.572 5.41345L220.542 37.439H216.205L213.619 31.0683H196.729L194.143 37.396H191.516L204.486 5.41345H207.572ZM197.271 29.7339H213.077L205.153 10.2775L197.271 29.7339Z" fill="white"/>
<path d="M175.113 10.751C175.113 11.985 175.363 13.1185 175.864 14.1516C176.392 15.156 177.073 16.0312 177.907 16.7774C178.741 17.5235 179.659 18.2409 180.66 18.9296C181.661 19.6183 182.662 20.3071 183.663 20.9958C184.663 21.6845 185.581 22.4019 186.415 23.148C187.249 23.8654 187.916 24.7263 188.417 25.7307C188.945 26.7064 189.209 27.7682 189.209 28.9161C189.209 30.7814 188.709 32.4314 187.708 33.8663C186.735 35.3011 185.511 36.3629 184.038 37.0516C182.564 37.7116 180.993 38.0416 179.325 38.0416C178.408 38.0416 177.49 37.9125 176.573 37.6542C175.683 37.4247 174.919 37.1377 174.279 36.7933C173.64 36.449 173.056 36.1046 172.527 35.7602C172.027 35.3872 171.638 35.0859 171.36 34.8563L170.984 34.4689L172.069 31.671C172.736 32.5893 173.598 33.4215 174.654 34.1676C175.739 34.9137 176.851 35.4446 177.991 35.7602C179.158 36.0472 180.243 36.1476 181.244 36.0616C182.272 35.9468 183.107 35.4589 183.746 34.598C184.413 33.7084 184.747 32.5032 184.747 30.9822C184.747 29.9205 184.497 28.9304 183.996 28.0121C183.496 27.0938 182.842 26.2903 182.036 25.6016C181.258 24.9129 180.382 24.2529 179.409 23.6215C178.463 22.9615 177.504 22.3015 176.531 21.6415C175.558 20.9814 174.668 20.2784 173.862 19.5322C173.084 18.7861 172.444 17.8965 171.944 16.8634C171.443 15.8304 171.193 14.6968 171.193 13.4629C171.193 12.889 171.262 12.2863 171.401 11.655C171.54 10.995 171.805 10.2919 172.194 9.54578C172.611 8.77097 173.125 8.0966 173.737 7.52266C174.376 6.92003 175.238 6.41784 176.323 6.01609C177.407 5.61433 178.63 5.41345 179.993 5.41345C181.355 5.41345 182.578 5.51389 183.663 5.71477C184.747 5.91565 185.581 6.15957 186.165 6.44654C186.749 6.70481 187.221 6.97743 187.583 7.26439C187.972 7.55136 188.236 7.79528 188.375 7.99616L188.542 8.29747L186.665 11.2245C186.165 10.3349 185.442 9.54578 184.497 8.85706C183.551 8.16834 182.55 7.69484 181.494 7.43657C180.437 7.1783 179.423 7.07786 178.449 7.13526C177.476 7.19265 176.67 7.53701 176.031 8.16834C175.419 8.79967 175.113 9.66057 175.113 10.751Z" fill="white"/>
<path d="M155.158 5.41345L168.128 37.439H163.791L161.205 31.0683H144.315L141.729 37.396H139.102L152.072 5.41345H155.158ZM144.857 29.7339H160.663L152.739 10.2775L144.857 29.7339Z" fill="white"/>
<path d="M136.01 32.3597L136.719 32.9193C136.663 33.0627 136.58 33.2493 136.468 33.4788C136.357 33.7084 136.037 34.1245 135.509 34.7272C134.981 35.3298 134.355 35.8607 133.632 36.3198C132.937 36.7503 131.923 37.152 130.588 37.5251C129.281 37.8981 127.836 38.0847 126.251 38.0847C123.888 38.0847 121.719 37.7547 119.745 37.0946C117.771 36.4346 116.019 35.4589 114.49 34.1676C112.989 32.8475 111.807 31.1257 110.945 29.0022C110.083 26.8499 109.652 24.4107 109.652 21.6845C109.652 19.5035 109.972 17.4948 110.612 15.6582C111.251 13.8216 112.085 12.2863 113.114 11.0524C114.143 9.8184 115.296 8.77097 116.575 7.91007C117.882 7.02047 119.175 6.38914 120.454 6.01609C121.733 5.61433 122.97 5.41345 124.166 5.41345C125.75 5.41345 127.266 5.52824 128.711 5.75781C130.157 5.98739 131.339 6.26001 132.256 6.57567C133.174 6.89133 133.98 7.22135 134.675 7.56571C135.37 7.88137 135.871 8.13964 136.176 8.34052L136.635 8.68488L135.593 12.3007C135.565 12.2146 135.523 12.1141 135.467 11.9994C135.412 11.8846 135.245 11.655 134.967 11.3106C134.717 10.9663 134.411 10.6506 134.05 10.3636C133.716 10.048 133.229 9.70361 132.59 9.33056C131.978 8.9575 131.283 8.64183 130.505 8.38356C129.754 8.0966 128.809 7.86702 127.669 7.69484C126.557 7.49397 125.361 7.39353 124.082 7.39353C122.553 7.39353 121.177 7.70919 119.953 8.34052C118.758 8.94315 117.799 9.73231 117.076 10.708C116.353 11.655 115.755 12.7742 115.282 14.0655C114.81 15.3569 114.476 16.6195 114.282 17.8535C114.115 19.0587 114.031 20.2927 114.031 21.5554C114.031 25.8599 115.227 29.447 117.618 32.3166C120.037 35.1576 123.012 36.5781 126.543 36.5781C128.016 36.5781 129.351 36.4346 130.546 36.1476C131.742 35.832 132.659 35.4733 133.299 35.0715C133.938 34.6698 134.48 34.268 134.925 33.8663C135.37 33.4358 135.662 33.0771 135.801 32.7901L136.01 32.3597Z" fill="white"/>
<path d="M99.8858 5.41345H102.597L102.221 37.396L79.4089 15.529L79.2003 37.396H76.5312L76.8232 5.49954L99.6773 29.0452L99.8858 5.41345Z" fill="white"/>
<path d="M53.4547 4.76758C56.374 4.76758 59.057 5.51369 61.5037 7.00592C63.9782 8.46946 65.9244 10.4782 67.3423 13.0322C68.7881 15.5862 69.511 18.3555 69.511 21.3399C69.511 24.3531 68.7881 27.1367 67.3423 29.6907C65.9244 32.216 63.9782 34.2248 61.5037 35.717C59.057 37.1805 56.374 37.9123 53.4547 37.9123C50.5354 37.9123 47.8385 37.1805 45.364 35.717C42.9173 34.2248 40.9711 32.216 39.5254 29.6907C38.1074 27.1367 37.3984 24.3531 37.3984 21.3399C37.3984 18.3555 38.1074 15.5862 39.5254 13.0322C40.9711 10.4782 42.9173 8.46946 45.364 7.00592C47.8385 5.51369 50.5354 4.76758 53.4547 4.76758ZM64.3813 21.9426C64.5203 19.159 64.1589 16.5763 63.297 14.1945C62.4351 11.8126 61.1979 9.90429 59.5853 8.46946C57.9727 7.00592 56.1794 6.21676 54.2054 6.10198C52.2314 6.01589 50.3686 6.60417 48.617 7.86683C46.8932 9.12948 45.4752 10.9087 44.3631 13.2044C43.2788 15.4715 42.6671 17.9968 42.5281 20.7804C42.3891 23.5352 42.7505 26.1179 43.6124 28.5285C44.4743 30.9103 45.7115 32.833 47.3241 34.2965C48.9367 35.7313 50.73 36.5062 52.704 36.6209C54.678 36.707 56.5269 36.1188 58.2507 34.8561C60.0023 33.5934 61.4203 31.8142 62.5046 29.5185C63.6167 27.2228 64.2423 24.6975 64.3813 21.9426Z" fill="white"/>
<path d="M30.4853 6.70481L33.488 37.396H29.6512L27.3991 14.1516L17.7236 37.396H14.3873L5.83784 14.3668L3.5858 37.396H0.875L3.71091 8.64184L2.54318 5.41345H6.63023L16.681 32.618L27.983 5.41345H31.0274L30.4853 6.70481Z" fill="white"/>
</g>
<g clip-path="url(#clip1_371_2993)">
<path d="M245.605 0.514038L244.236 2.635L238.13 12.1003L232.024 2.635L230.656 0.514038H228.262V21.7714H230.144V3.26145L232.024 6.17889V21.7714H244.236V6.17889L246.119 3.26145V21.7714H247.999V0.514038H245.605Z" fill="#713131"/>
<g clip-path="url(#clip2_371_2993)">
<path d="M245.605 0.514038L244.236 2.635L238.13 12.1003L232.024 2.635L230.656 0.514038H228.262V21.7714H230.144V3.26145L232.024 6.17889V21.7714H244.236V6.17889L246.119 3.26145V21.7714H247.999V0.514038H245.605Z" fill="white"/>
</g>
</g>
<defs>
<clipPath id="clip0_371_2993">
<rect width="220.542" height="35.429" fill="white" transform="translate(0 4.05701)"/>
</clipPath>
<clipPath id="clip1_371_2993">
<rect width="19.7372" height="21.2574" fill="white" transform="translate(228.262 0.514038)"/>
</clipPath>
<clipPath id="clip2_371_2993">
<rect width="19.7372" height="21.2574" fill="white" transform="translate(228.262 0.514038)"/>
</clipPath>
</defs>
</svg>
