<svg width="200" height="28" viewBox="0 0 200 28" fill="none" xmlns="http://www.w3.org/2000/svg">
<g clip-path="url(#clip0_79_14)">
<mask id="mask0_79_14" style="mask-type:luminance" maskUnits="userSpaceOnUse" x="0" y="0" width="178" height="28">
<path d="M177.855 0H0V28H177.855V0Z" fill="white"/>
</mask>
<g mask="url(#mask0_79_14)">
<path d="M167.395 1.07202L177.855 26.3823H174.357L172.272 21.3474H158.65L156.565 26.3483H154.446L164.906 1.07202H167.395ZM159.088 20.2929H171.835L165.444 4.91618L159.088 20.2929Z" fill="white"/>
<path d="M141.218 5.2904C141.218 6.26562 141.42 7.16148 141.824 7.97789C142.25 8.77169 142.799 9.46343 143.471 10.053C144.144 10.6427 144.885 11.2097 145.691 11.754C146.498 12.2984 147.306 12.8426 148.113 13.3869C148.92 13.9313 149.66 14.4983 150.333 15.0879C151.006 15.6549 151.543 16.3353 151.947 17.1291C152.373 17.9002 152.586 18.7393 152.586 19.6465C152.586 21.1206 152.183 22.4247 151.375 23.5587C150.59 24.6926 149.604 25.5318 148.416 26.0761C147.227 26.5978 145.961 26.8585 144.615 26.8585C143.876 26.8585 143.135 26.7564 142.395 26.5524C141.678 26.371 141.062 26.1442 140.545 25.872C140.03 25.5998 139.559 25.3277 139.133 25.0555C138.73 24.7607 138.415 24.5225 138.191 24.3411L137.889 24.0349L138.763 21.8237C139.301 22.5494 139.997 23.2072 140.849 23.7968C141.723 24.3865 142.619 24.806 143.539 25.0555C144.48 25.2823 145.355 25.3617 146.162 25.2937C146.992 25.2029 147.664 24.8174 148.18 24.137C148.718 23.434 148.988 22.4814 148.988 21.2794C148.988 20.4403 148.786 19.6578 148.382 18.9321C147.979 18.2064 147.451 17.5713 146.801 17.027C146.174 16.4827 145.467 15.961 144.682 15.4622C143.92 14.9405 143.147 14.4189 142.362 13.8972C141.577 13.3756 140.86 12.8199 140.209 12.2303C139.581 11.6406 139.066 10.9376 138.662 10.1211C138.259 9.30467 138.057 8.40881 138.057 7.43357C138.057 6.98001 138.113 6.50375 138.225 6.0048C138.337 5.48317 138.55 4.92752 138.864 4.33786C139.2 3.72552 139.615 3.19255 140.109 2.73896C140.624 2.26269 141.319 1.86581 142.194 1.54829C143.068 1.23078 144.055 1.07202 145.153 1.07202C146.252 1.07202 147.239 1.1514 148.113 1.31015C148.988 1.46891 149.66 1.66169 150.131 1.88848C150.601 2.0926 150.983 2.30805 151.274 2.53485C151.588 2.76164 151.801 2.95442 151.914 3.11317L152.048 3.35131L150.534 5.66461C150.131 4.96154 149.548 4.33786 148.786 3.79356C148.024 3.24925 147.216 2.87504 146.364 2.67093C145.512 2.46681 144.694 2.38743 143.909 2.43279C143.124 2.47815 142.474 2.7503 141.959 3.24925C141.465 3.7482 141.218 4.42858 141.218 5.2904Z" fill="white"/>
<path d="M125.125 1.07202L135.584 26.3823H132.087L130.001 21.3474H116.38L114.295 26.3483H112.177L122.636 1.07202H125.125ZM116.817 20.2929H129.564L123.174 4.91618L116.817 20.2929Z" fill="white"/>
<path d="M109.682 22.368L110.253 22.8103C110.209 22.9237 110.141 23.0711 110.052 23.2525C109.962 23.434 109.704 23.7628 109.278 24.239C108.853 24.7153 108.348 25.1349 107.765 25.4978C107.204 25.838 106.386 26.1555 105.309 26.4503C104.256 26.7451 103.09 26.8925 101.812 26.8925C99.9059 26.8925 98.1571 26.6318 96.5654 26.1101C94.973 25.5885 93.5605 24.8174 92.3273 23.7968C91.1169 22.7536 90.164 21.3928 89.4685 19.7145C88.7737 18.0136 88.4263 16.0858 88.4263 13.9313C88.4263 12.2076 88.6837 10.62 89.2 9.16859C89.7155 7.71707 90.3882 6.50375 91.218 5.52853C92.047 4.55332 92.9778 3.72552 94.009 3.04513C95.0629 2.34207 96.1059 1.84313 97.137 1.54829C98.1681 1.23078 99.1661 1.07202 100.13 1.07202C101.408 1.07202 102.63 1.16274 103.797 1.34417C104.962 1.52561 105.915 1.74107 106.655 1.99054C107.395 2.24001 108.045 2.50083 108.606 2.77298C109.166 3.02245 109.57 3.22657 109.817 3.38533L110.186 3.65748L109.345 6.51509C109.323 6.44705 109.289 6.36767 109.245 6.27696C109.2 6.18624 109.065 6.0048 108.841 5.73264C108.639 5.4605 108.392 5.21102 108.101 4.98422C107.832 4.73475 107.439 4.4626 106.924 4.16776C106.43 3.87293 105.87 3.62346 105.242 3.41935C104.637 3.19255 103.875 3.01111 102.956 2.87504C102.059 2.71628 101.094 2.63691 100.063 2.63691C98.8297 2.63691 97.7197 2.88638 96.7335 3.38533C95.7695 3.86159 94.9958 4.48528 94.4124 5.25638C93.8297 6.0048 93.3481 6.88929 92.9668 7.90985C92.5854 8.93045 92.3162 9.92837 92.1591 10.9035C92.0249 11.8561 91.9578 12.8313 91.9578 13.8292C91.9578 17.2311 92.9218 20.0661 94.8498 22.334C96.8007 24.5792 99.2 25.7019 102.047 25.7019C103.236 25.7019 104.312 25.5885 105.276 25.3617C106.24 25.1122 106.98 24.8287 107.495 24.5112C108.012 24.1937 108.448 23.8762 108.808 23.5587C109.166 23.2185 109.401 22.935 109.513 22.7082L109.682 22.368Z" fill="white"/>
<path d="M80.5501 1.07202H82.7363L82.4339 26.3483L64.0369 9.06653L63.8688 26.3483H61.7163L61.9517 1.14006L80.382 19.7485L80.5501 1.07202Z" fill="white"/>
<path d="M43.1069 0.561523C45.4611 0.561523 47.6248 1.15119 49.598 2.33052C51.5935 3.48717 53.1629 5.07473 54.3065 7.09319C55.4724 9.11164 56.0553 11.3003 56.0553 13.6589C56.0553 16.0402 55.4724 18.2401 54.3065 20.2586C53.1629 22.2544 51.5935 23.842 49.598 25.0213C47.6248 26.1779 45.4611 26.7563 43.1069 26.7563C40.7526 26.7563 38.5778 26.1779 36.5823 25.0213C34.6091 23.842 33.0396 22.2544 31.8737 20.2586C30.7302 18.2401 30.1584 16.0402 30.1584 13.6589C30.1584 11.3003 30.7302 9.11164 31.8737 7.09319C33.0396 5.07473 34.6091 3.48717 36.5823 2.33052C38.5778 1.15119 40.7526 0.561523 43.1069 0.561523ZM51.9186 14.1352C52.0307 11.9352 51.7392 9.8941 51.0441 8.01173C50.349 6.12933 49.3513 4.62114 48.0508 3.48717C46.7504 2.33052 45.3042 1.70684 43.7123 1.61612C42.1204 1.54808 40.6181 2.013 39.2056 3.0109C37.8154 4.0088 36.6719 5.41492 35.7751 7.22927C34.9006 9.02092 34.4073 11.0168 34.2952 13.2167C34.1831 15.3939 34.4746 17.435 35.1697 19.3401C35.8647 21.2225 36.8625 22.742 38.1629 23.8986C39.4634 25.0326 40.9096 25.6449 42.5015 25.7357C44.0935 25.8037 45.5845 25.3388 46.9746 24.3409C48.3872 23.343 49.5307 21.9369 50.4051 20.1225C51.302 18.3082 51.8065 16.3124 51.9186 14.1352Z" fill="white"/>
<path d="M24.5833 2.0926L27.0049 26.3483H23.9107L22.0946 7.97789L14.2918 26.3483H11.6012L4.70659 8.14799L2.89045 26.3483H0.704346L2.99134 3.62346L2.04964 1.07202H5.34561L13.451 22.5721L22.5653 1.07202H25.0206L24.5833 2.0926Z" fill="white"/>
</g>
<mask id="mask1_79_14" style="mask-type:luminance" maskUnits="userSpaceOnUse" x="184" y="0" width="16" height="17">
<path d="M200 0H184.083V16.8H200V0Z" fill="white"/>
</mask>
<g mask="url(#mask1_79_14)">
<path d="M198.069 0L196.965 1.67623L192.041 9.15677L187.118 1.67623L186.014 0H184.083V16.8H185.601V2.17132L187.118 4.47701V16.8H196.965V4.47701L198.484 2.17132V16.8H200V0H198.069Z" fill="#713131"/>
<mask id="mask2_79_14" style="mask-type:luminance" maskUnits="userSpaceOnUse" x="184" y="0" width="16" height="17">
<path d="M200 0H184.083V16.8H200V0Z" fill="white"/>
</mask>
<g mask="url(#mask2_79_14)">
<path d="M198.069 0L196.965 1.67623L192.041 9.15677L187.118 1.67623L186.014 0H184.083V16.8H185.601V2.17132L187.118 4.47701V16.8H196.965V4.47701L198.484 2.17132V16.8H200V0H198.069Z" fill="white"/>
</g>
</g>
</g>
<defs>
<clipPath id="clip0_79_14">
<rect width="200" height="28" fill="white"/>
</clipPath>
</defs>
</svg>
